<svg width="20" height="21" viewBox="0 0 20 21" fill="none" xmlns="http://www.w3.org/2000/svg">
<path d="M11.7049 2.36835L8.24825 2.36002H8.24658C4.60158 2.36002 1.74658 5.21585 1.74658 8.86168C1.74658 12.2767 4.40158 14.8667 7.96742 15.0033V18.1933C7.96742 18.2833 8.00408 18.4317 8.06742 18.5292C8.18575 18.7167 8.38742 18.8183 8.59408 18.8183C8.70908 18.8183 8.82492 18.7867 8.92908 18.72C9.14908 18.58 14.3232 15.27 15.6691 14.1317C17.2541 12.79 18.2024 10.8233 18.2049 8.87168V8.85752C18.1999 5.21835 15.3466 2.36835 11.7049 2.36752V2.36835ZM14.8607 13.1783C13.9157 13.9783 10.8091 16.0159 9.21742 17.0475V14.3917C9.21742 14.0467 8.93825 13.7667 8.59242 13.7667H8.26242C5.21242 13.7667 2.99742 11.7034 2.99742 8.86168C2.99742 5.91668 5.30408 3.61002 8.24742 3.61002L11.7032 3.61835H11.7049C14.6482 3.61835 16.9549 5.92335 16.9566 8.86502C16.9541 10.4567 16.1716 12.0683 14.8616 13.1783H14.8607Z" fill="#6E767D"/>
</svg>
