<svg width="20" height="21" viewBox="0 0 20 21" fill="none" xmlns="http://www.w3.org/2000/svg">
<path d="M19.8083 13.5583C19.5649 13.3142 19.1691 13.3142 18.9249 13.5583L17.0749 15.4083V6.87499C17.0749 5.15166 15.6724 3.74999 13.9499 3.74999H9.07494C8.72994 3.74999 8.44994 4.02999 8.44994 4.37499C8.44994 4.71999 8.72994 4.99999 9.07494 4.99999H13.9499C14.9833 4.99999 15.8249 5.84166 15.8249 6.87499V15.4083L13.9749 13.5583C13.7308 13.3142 13.3349 13.3142 13.0916 13.5583C12.8483 13.8025 12.8466 14.1983 13.0916 14.4417L16.0083 17.3583C16.1291 17.4808 16.2891 17.5417 16.4499 17.5417C16.6108 17.5417 16.7691 17.4817 16.8916 17.3583L19.8083 14.4417C20.0533 14.1983 20.0533 13.8025 19.8083 13.5583ZM10.9249 16.2917H6.04994C5.0166 16.2917 4.17494 15.45 4.17494 14.4167V5.88332L6.02494 7.73332C6.14827 7.85582 6.30827 7.91666 6.46827 7.91666C6.62827 7.91666 6.78827 7.85582 6.90994 7.73332C7.1541 7.48916 7.1541 7.09332 6.90994 6.84999L3.99327 3.93332C3.7491 3.68832 3.35327 3.68832 3.10994 3.93332L0.193271 6.84999C-0.0517285 7.09332 -0.0517285 7.48916 0.193271 7.73332C0.438271 7.97749 0.832438 7.97749 1.0766 7.73332L2.9266 5.88332V14.4167C2.9266 16.14 4.3291 17.5417 6.0516 17.5417H10.9266C11.2716 17.5417 11.5516 17.2617 11.5516 16.9167C11.5516 16.5717 11.2708 16.2917 10.9266 16.2917H10.9249Z" fill="#6E767D"/>
</svg>
