<svg width="20" height="21" viewBox="0 0 20 21" fill="none" xmlns="http://www.w3.org/2000/svg">
<path d="M14.6084 6.72501L10.4418 2.55834C10.1976 2.31417 9.80176 2.31417 9.55843 2.55834L5.39176 6.72501C5.14676 6.96917 5.14676 7.36501 5.39176 7.60834C5.63676 7.85167 6.03092 7.85334 6.27509 7.60834L9.37509 4.50834V13C9.37509 13.345 9.65509 13.625 10.0001 13.625C10.3451 13.625 10.6251 13.345 10.6251 13V4.50834L13.7251 7.60834C13.8468 7.73084 14.0068 7.79167 14.1668 7.79167C14.3268 7.79167 14.4868 7.73167 14.6084 7.60834C14.8526 7.36417 14.8526 6.96917 14.6084 6.72501Z" fill="#6E767D"/>
<path d="M16.4234 18.7867H3.57675C2.52341 18.7867 1.66675 17.93 1.66675 16.8767V12.1667C1.66675 11.8217 1.94675 11.5417 2.29175 11.5417C2.63675 11.5417 2.91675 11.8217 2.91675 12.1667V16.8767C2.91675 17.2408 3.21258 17.5367 3.57675 17.5367H16.4234C16.7876 17.5367 17.0834 17.2408 17.0834 16.8767V12.1667C17.0834 11.8217 17.3634 11.5417 17.7084 11.5417C18.0534 11.5417 18.3334 11.8217 18.3334 12.1667V16.8767C18.3334 17.93 17.4767 18.7867 16.4234 18.7867Z" fill="#6E767D"/>
</svg>
